<svg fill="none" height="475" viewBox="0 0 475 475" width="475" xmlns="http://www.w3.org/2000/svg" xmlns:xlink="http://www.w3.org/1999/xlink"><clipPath id="a"><path d="m0 0h475v475h-475z"/></clipPath><clipPath id="b"><path d="m66 35h343.1v405.9h-343.1z"/></clipPath><g clip-path="url(#a)"><g clip-path="url(#b)"><path d="m273.4 217.4c-.3-6.3-3.6-12.6-2.5-18.9.5-2.8-1.5-4.6-4.2-4.2-14.5 2-29 3.5-43.6 4.4-.6 0-1.1.2-1.5.4-2-1.7-5.8-.9-5.6 2.4l1 12.2c.3 3.9.3 8 1 11.9.7 3.8 3.6 4.7 7.1 4.9 1.8.1 3.5 0 5.3-.3.8-.1 1.8-.5 2.8-.7v.4c-.1 1.4-.2 2.8-.3 4.2-.2 2.8-.4 5.6-.6 8.4-.3 3.9 5.7 4.5 6.7.9.5-1.9 1-3.7 1.5-5.6.3-1.2.5-3.3 1.2-4.3.5-.8-.1-.3.6-.5.6-.2 2 .1 2.6.2 1.5.1 3.1.2 4.6.3 6.1.4 13.1 1.6 18.3-2.3 4.4-3.2 5.8-8.7 5.6-13.8z" fill="#ffd000"/><path d="m370.6 216.3c-18.5 3.8-37 7.4-55.6 10.9-.4-.1-.8-.1-1.2-.2-1.3-.2-2.3.5-2.8 1.5-1.8 2-.1 6 3.3 5.7 3.1 1.7 3.8 6.4 4.3 9.6 1 6.4 1.5 12.9 1.7 19.3.1 3.9 5.4 4.5 6.7.9 1.5-4.4 3.5-8.5 5.8-12.5 1.1 4.7 1.7 9.6 1.7 14.5 0 2.8 3.8 4.6 5.8 2.4 13-14.5 24.5-30.3 34.2-47.2 1.5-2.6-1.1-5.4-3.9-4.9z" fill="#ffd000"/><path d="m332.4 108.6c-2.7-2.9-6.4-4.8-10.2-5.7 1.2-.7 2.5-2 3.2-3.2.4-.4.7-.9 1-1.4 2.5-4.3 1.2-10-3.1-12.6-.8-.5-1.7-.8-2.6-1-.1-.1-.2-.2-.3-.2-1.2-.7-3.1-1.2-4.4-1.2-.8 0-1.8.1-2.6.3-2.2.6-4.4 2.2-5.4 4.3-.7 1.4-1 2.5-1.2 4-.3 2.6-.2 5.1 1.2 7.4 1 1.7 2.5 3.1 4.2 4-.1 0-.2.1-.4.1-7.8 2.9-12.3 9.7-13 17.8-.4 4.6 4.2 8.5 8.5 8.5.7 0 1.4-.1 2.1-.3 2.3 1.2 5 1.6 7.6 1.4 2.5-.2 4.7-1.7 7.1-1.9 4.6-.4 8.5-3.6 8.5-8.5 0-.2 0-.4-.1-.5 2.7-2.8 3.6-7.4-.1-11.3z" fill="#ffd000"/><path d="m372.7 39c-.6-.4-1.3-.7-2.1-.9-30.4-8.4-38.6 44.1-10.1 51.3 13.7 3.5 26.8-6.8 29.2-20.1 2.2-11.8-4.5-27.4-17-30.3z" fill="#ffd000"/><path d="m247 258.6c-10.2 0-19.3 4.8-29.1 6.7-4.6.9-9.8-.6-14.2 1.1-4.6 1.8-6.4 7.3-8.5 11.3-2.6 5-5 10.1-7.8 14.9-2.8 4.9-7.4 6.1-12.5 7.9-5.5 1.9-11 3.6-16.7 5.1-2.8.8-5.6 1.5-8.5 2.1-1.4.3-2.8.6-4.3.9-.2 0-1.5.3-2.3.5-.3-.2-.6-.4-.9-.5-.1 0-.2-.1-.3-.1-1-.4-2.3.1-3.1.8-3.1.4-5 4.7-1.6 6.2 9.6 4.1 19.2 8.9 29 12.3 4.9 1.7 9.4.8 14.3-.1l15.5-3.1c5.4-1.1 10.7-2.1 16.1-3.2 4.2-.8 8.7-1.5 12.5-3.7 3.6-2.1 5.9-5.3 7.6-9 2.3-4.8 4.5-9.7 6.8-14.6 4.8-10.3 9.8-20.5 11.3-32 .4-1.9-1.6-3.5-3.3-3.5z" fill="#ffd000"/><g stroke="#1b1b20" stroke-linecap="round" stroke-linejoin="round" stroke-miterlimit="10" stroke-width="3"><path d="m219.9 193.6c-1.8-16.9-3.7-24.8-6.2-41.6"/><path d="m223.1 258.5c-1.6-17.5-1.4-28.3-1.1-23.2"/><path d="m91.8999 389.3c.2 8.9.4 17.9.4 26.8 14.0001-13 37.2001 8.2 25.3001 23.3 2.2-2.7 26.7-1.1 31-1.4 10.8-.7 21.6-1.7 32.5-2.3 7.5-.4 15.1-.9 22.6-.8 3.2 0 17.6-1.1 19.4 1-5.5-9.5-2.6-23 6.3-29.5 3.4-2.5 11.2-3.6 13.7-.2-2.3-15.4-5.3-30.8-6.9-46.2-1.8-17.2-2.9-34.5-4.1-51.8"/><path d="m211.7 153.5c-1.6.7-6 1-7.7.8-4.6-.5-9.6-1.3-13-4.4-2.2-2-3.5-4.7-4.3-7.5-1.4-5-1.2-10.5.7-15.4-7.5 2.2-24 2.3-31.6 3.5-8.2 1.3-16.3 3.4-24.5 4.9-8.5 1.5-12.5 2.9-21.1 4.3-3.1.5-21.9 5.3-23.7 3.5 5.9 6.1 7.2 16.2 2.9 23.6s-13.6 11.4-21.9 9.4c1.1 4.3 2.2 8.7 3.1 13 14.4 66.1 19.4 135.8 21.2 203.3"/><path d="m84.1001 306.9c-6.1 1-7.9 8.4-5.2 13.2 3.3 6.1 11 7.5 17.3 7.3 15.2999-.5 30.7999-5.1 45.3999-9.4"/><path d="m132.1 314.8 36 16.2"/><path d="m200.2 265.1c-7.8 21.1-17.4 41.5-28.7 61"/><path d="m202.9 264.9c15.9-3.8 32.3-6.1 48.6-6.9"/><path d="m250.2 260.5c-8.9 17.3-16.8 35.1-23.6 53.4-.3.9-.7 1.8-1.3 2.5-.9.9-2.2 1.2-3.4 1.5-17.1 4.1-34.1 8.2-51.2 12.3"/><path d="m132.3 310.6c17.3-.6 32.7-13 50-12.8"/><path d="m378.1 213.9c-15.5 8.9-31.2 17.9-46.7 26.8-.4.2-.9.4-1.3.1s.4-.9.5-.5"/><path d="m378.1 213.8c-11.4 17-28.5 38.8-41.6 54.5"/><path d="m378.1 213.5c-24.6 1.8-48.8 5-71.8 13.9-.5.2-1 .4-1.2.9s.5 1.1.9.7"/><path d="m303.5 229.2c9.4 2.8 28.6 10.7 28.6 10.7"/><path d="m332.1 239.6s4.1 17.3 4.6 27.6"/><path d="m180.3 229.5c-14.5 6.5-30.6 9.4-46.5 8.4 4.3 7.9 10.4 15.9 19.1 19.2 7.5 2.9 14.6 0 17.2-7.8 1.4-4.1 1.9-11.3-1.4-14.8"/><path d="m146.5 292.7c-2.6-4.8-5.7-9.4-9.4-13.4"/><path d="m156.1 284.4c-.2-1.1-.4-2.1-.6-3.2"/><path d="m173.2 278.7c1.1-2.3 2.1-4.7 3.2-7"/><path d="m320.7 238.5c-.3 9.6.2 19.3 1.4 28.8 4-6.9 8.2-11.4 12.2-18.3"/><path d="m333 81.8c-14.4-9.2-32.5-4.2-37.6 12.8-1.3 4.4-2.2 9.1-1.6 13.6.9 7.9 6.2 15.2 13.4 18.5 7.2 3.4 16.2 2.7 22.8-1.7 4.3-2.9 7.6-7.1 10.1-11.6 2.2-3.9 3.8-8.3 3.9-12.8-.1-7.5-4.7-14.7-11-18.8z"/><path d="m301.2 120c0-8.4 7.2-16.1 15.6-16.6s16.5 6.4 17.4 14.7"/><path d="m311.7 91c-1.7 3.5.4 8.4 4.1 9.5 3.8 1.1 8.2-2.1 8.2-6s-4.7-7.1-8.3-5.4"/><path d="m390.7 58.1c-.6-15.8-16.7-27.4-31.4-18.6-12.4 7.4-18.7 25.1-9.1 37.1 4.6 5.8 12.1 9.2 19.5 9.3 2.6 0 5.3-.3 7.7-1.4 3.2-1.5 5.8-4.1 7.7-7.1 3.9-5.6 5.8-12.5 5.6-19.3z"/><path d="m366.3 85.9c1.2 26.9 2.5 58.4 1.5 85.3-.1 2.6-.3 5.4-2 7.3-1.5 1.7-4 2.3-6.3 2.7-16.5 3.2-33.3 3.1-50 3.8-10 .4-27.4 5.2-35.2-2.8-3-3.1-3.5-7.8-3.8-12.1-1.9-25.5-3.4-50.9-4.7-76.4-.4-7.8-.8-15.6-.3-23.4.3-4.8 1.3-10.3 5.4-12.9 2.6-1.7 5.9-1.7 9-1.7 21.3-.1 40.4-4.8 61.4-1.5"/><path d="m361.7 56.8c3.6-1.6 6.6-4.5 8.4-8-.3 7.8-.6 15.5-.8 23.3"/><path d="m362.4 72c3.3.3 6.7.5 10 .8 1.8.1 3.7.2 5.1-.8"/><path d="m293.5 149.4c15.6-2.1 31.2-3.4 46.9-3.8"/><path d="m313.4 165.1c5.2-.5 10.5-1.5 15.5-2.9"/><path d="m240.2 290.5c5.2-.1 10.5 2.2 14 6 1.5 1.6 2.8 3.6 2.9 5.8.4 4.4-3.9 8.1-8.2 8.8s-8.7-.8-12.9-2.3"/><path d="m389.1 205.4 4.2-5.1"/><path d="m400.1 183.4c.6-1.1 1.1-2.3 1.7-3.4"/><path d="m407.6 159.7c0-.8 0-1.7 0-2.5"/><path d="m404.2 140.2c-.8-1.4-1.7-2.8-2.5-4.2"/><path d="m395.8 122.4c-.8-1.4-1.7-2.8-2.5-4.2"/><path d="m379.7 110.6c-.6-1.1-1.1-2.3-1.7-3.4"/><path d="m250.3 282.3c1.1-.3 2.3-.6 3.4-.8"/><path d="m271.4 277c1.1-.3 2.3-.6 3.4-.8"/><path d="m289.1 273.6c1.4-.8 2.8-1.7 4.2-2.5"/><path d="m304.4 267c2-.8 4-1.7 5.9-2.5"/><path d="m317.9 288c-2.4 4-5.2 7.7-8.5 11"/><path d="m291.7 247.4c-4.5 1.4-9 2.8-13.5 4.2"/><path d="m325.9 295.8c-3 6.4-6.5 12.6-10.6 18.4"/><path d="m267.9 193.3c-10.1.7-20.1 1.5-30.1 2.5-5.1.5-10.6.5-15.6 1.6-1.7.4-6.9 1.1-7.7 2.8-.2.5-.3 1-.3 1.6-.3 9.4 3.1 18.6 3.1 28.1.1.5.1 1 .5 1.4.6.5 1.5.5 2.3.3 4.8-.7 9.6-1.4 14.4-2.1-1.2 6.1-1 12.4.6 18.5 5-4.4 5.8-12.3 12-15.2 4.3-2 9.4-.8 14.1-.2s10.6-.4 12.4-4.4c.7-1.6.6-3.3.4-5-.7-8.9-1.3-17.7-2-26.6-.1-.9-.2-1.9-.9-2.5-.8-.9-2.1-.9-3.2-.8z"/></g><path d="m134.5 238.3s6.7 10.5 8.5 12.3c1.9 1.9 8.5 7.5 16.1 7.5s11.4-8.5 11.4-8.5 1.4-12.5-1.2-14.3-14 2-14 2z" fill="#1b1b20"/><path d="m127.4 210.8c.773 0 1.4-.627 1.4-1.4s-.627-1.4-1.4-1.4-1.4.627-1.4 1.4.627 1.4 1.4 1.4z" stroke="#1b1b20" stroke-linecap="round" stroke-linejoin="round" stroke-miterlimit="10" stroke-width="3"/><path d="m170 204.2c.773 0 1.4-.627 1.4-1.4s-.627-1.4-1.4-1.4-1.4.627-1.4 1.4.627 1.4 1.4 1.4z" stroke="#1b1b20" stroke-linecap="round" stroke-linejoin="round" stroke-miterlimit="10" stroke-width="3"/></g></g></svg>